<svg width="790" height="800" viewBox="0 0 790 800" fill="none" xmlns="http://www.w3.org/2000/svg">
<path d="M737.73 327.37C746.675 300.433 749.768 271.897 746.804 243.668C743.84 215.439 734.885 188.168 720.54 163.677C699.272 126.658 666.798 97.3487 627.799 79.9754C588.8 62.6022 545.292 58.0622 503.546 67.0102C479.83 40.6289 449.589 20.9525 415.862 9.95722C382.134 -1.03808 346.107 -2.96519 311.399 4.36944C276.691 11.7041 244.524 28.0422 218.129 51.7429C191.733 75.4437 172.039 105.673 161.023 139.393C133.212 145.096 106.938 156.67 83.9583 173.34C60.9782 190.01 41.8208 211.393 27.7665 236.06C6.26765 273.018 -2.92081 315.855 1.52951 358.378C5.97984 400.902 23.8383 440.908 52.5232 472.613C43.5453 499.538 40.4206 528.069 43.3581 556.298C46.2956 584.528 55.2276 611.804 69.5565 636.303C90.8512 673.336 123.354 702.652 162.38 720.025C201.406 737.398 244.941 741.932 286.71 732.973C305.552 754.192 328.704 771.146 354.62 782.705C380.536 794.263 408.62 800.16 436.996 800C479.784 800.039 521.478 786.481 556.059 761.283C590.64 736.085 616.319 700.549 629.39 659.807C657.198 654.094 683.467 642.516 706.446 625.846C729.425 609.177 748.585 587.798 762.646 563.137C783.891 526.234 792.922 483.557 788.446 441.212C783.971 398.866 766.219 359.017 737.73 327.37ZM436.996 747.64C401.954 747.696 368.01 735.413 341.116 712.947L345.846 710.267L505.123 618.327C509.087 616.002 512.379 612.686 514.674 608.704C516.969 604.723 518.188 600.212 518.213 595.617V371.053L585.546 410.007C585.879 410.175 586.168 410.42 586.388 410.722C586.608 411.023 586.754 411.372 586.813 411.74V597.827C586.729 637.534 570.917 675.591 542.839 703.669C514.761 731.746 476.704 747.556 436.996 747.64ZM114.973 610.127C97.3989 579.781 91.0889 544.209 97.1531 509.67L101.886 512.51L261.32 604.45C265.265 606.765 269.756 607.985 274.33 607.985C278.904 607.985 283.395 606.765 287.34 604.45L482.1 492.167V569.913C482.082 570.316 481.972 570.71 481.781 571.065C481.589 571.42 481.32 571.727 480.993 571.963L319.666 665.007C285.237 684.84 244.345 690.201 205.967 679.912C167.589 669.622 134.863 644.524 114.973 610.127ZM73.0265 263.187C90.7226 232.646 118.654 209.351 151.876 197.427V386.667C151.817 391.239 152.985 395.743 155.259 399.709C157.533 403.676 160.831 406.959 164.806 409.217L358.62 521.027L291.283 559.977C290.919 560.17 290.512 560.271 290.1 560.271C289.687 560.271 289.281 560.17 288.916 559.977L127.906 467.093C93.5419 447.174 68.4714 414.448 58.1854 376.083C47.8993 337.717 53.2359 296.839 73.0265 262.4V263.187ZM626.236 391.713L431.793 278.8L498.973 240C499.338 239.807 499.744 239.705 500.156 239.705C500.569 239.705 500.975 239.807 501.34 240L662.35 333.043C686.968 347.249 707.038 368.164 720.215 393.347C733.393 418.53 739.134 446.943 736.77 475.267C734.406 503.591 724.033 530.658 706.862 553.308C689.692 575.958 666.433 593.257 639.8 603.183V413.943C639.66 409.379 638.336 404.93 635.958 401.032C633.579 397.134 630.231 393.925 626.236 391.713ZM693.26 290.943L688.526 288.103L529.41 195.377C525.441 193.048 520.922 191.82 516.32 191.82C511.718 191.82 507.199 193.048 503.23 195.377L308.633 307.657V229.913C308.592 229.518 308.658 229.119 308.824 228.758C308.991 228.397 309.252 228.088 309.58 227.863L470.59 134.977C495.267 120.761 523.482 113.865 551.934 115.095C580.386 116.326 607.9 125.632 631.258 141.926C654.615 158.22 672.85 180.827 683.831 207.105C694.811 233.382 698.083 262.242 693.263 290.31L693.26 290.943ZM271.883 428.767L204.55 389.973C204.213 389.771 203.925 389.496 203.706 389.17C203.487 388.843 203.343 388.472 203.283 388.083V202.473C203.32 173.999 211.463 146.124 226.758 122.107C242.054 98.0896 263.871 78.9231 289.658 66.8481C315.445 54.7732 344.137 50.2888 372.379 53.9194C400.621 57.55 427.245 69.1455 449.14 87.3502L444.406 90.0335L285.133 181.967C281.169 184.292 277.878 187.608 275.583 191.59C273.288 195.571 272.068 200.081 272.043 204.677L271.883 428.767ZM308.47 349.92L395.203 299.927L482.1 349.92V449.9L395.52 499.89L308.63 449.9L308.47 349.92Z" fill="white"/>
</svg>
